# AST/ASF file generated using VICON BodyLanguage
# -----------------------------------------------
:version 1.10
:name VICON
:units
  mass 1.0
  length 0.45
  angle deg
:documentation
   .ast/.asf automatically generated from VICON data using
   VICON BodyBuilder and BodyLanguage model FoxedUp or BRILLIANT.MOD
:root
   order TX TY TZ RX RY RZ
   axis XYZ
   position 0 0 0  
   orientation 0 0 0 
:bonedata
  begin
     id 1 
     name lhipjoint
     direction 0.646657 -0.683706 0.338203 
     length 2.4948 
     axis 0 0 0  XYZ
  end
  begin
     id 2 
     name lfemur
     direction 0.34202 -0.939693 0  
     length 6.79491  
     axis 0 0 20  XYZ
    dof rx ry rz
    limits (-160.0 20.0)
           (-70.0 70.0)
           (-60.0 70.0)
  end
  begin
     id 3 
     name ltibia
     direction 0.34202 -0.939693 0   
     length 7.56807   
     axis 0 0 20   XYZ
    dof rx
    limits (-10.0 170.0)
  end
  begin
     id 4 
     name lfoot
     direction 0.0679796 -0.186772 0.980048   
     length 2.53018   
     axis -90 7.62852e-016 20   XYZ
    dof rx rz
    limits (-45.0 90.0)
           (-70.0 20.0)
  end
  begin
     id 5 
     name ltoes
     direction 1.53625e-011 -4.21881e-011 1   
     length 1.26912   
     axis -90 7.62852e-016 20   XYZ
    dof rx
    limits (-90.0 20.0)
  end
  begin
     id 6 
     name rhipjoint
     direction -0.618868 -0.704065 0.348274   
     length 2.42265  
     axis 0 0 0  XYZ 
  end
  begin
     id 7 
     name rfemur
     direction -0.34202 -0.939693 0   
     length 6.73814   
     axis 0 0 -20   XYZ
    dof rx ry rz
    limits (-160.0 20.0)
           (-70.0 70.0)
           (-70.0 60.0)
  end
  begin
     id 8 
     name rtibia
     direction -0.34202 -0.939693 0   
     length 7.66799   
     axis 0 0 -20   XYZ
    dof rx
    limits (-10.0 170.0)
 end
 begin
     id 9 
     name rfoot
     direction -0.0727352 -0.199838 0.977125   
     length 2.57224  
     axis -90 -7.62852e-016 -20   XYZ
    dof rx rz
    limits (-45.0 90.0)
           (-20.0 70.0)
  end
  begin
     id 10 
     name rtoes
     direction -1.53501e-011 -4.21858e-011 1   
     length 1.28858   
     axis -90 -7.62852e-016 -20   XYZ
    dof rx
    limits (-90.0 20.0)
  end
  begin
     id 11 
     name lowerback
     direction -0.0172471 0.995767 -0.0902851   
     length 2.20206   
     axis 0 0 0   XYZ
    dof rx ry rz
    limits (-20.0 45.0)
           (-30.0 30.0)
           (-30.0 30.0)
  end
  begin
     id 12 
     name upperback
     direction -0.000110737 0.999714 0.0239043   
     length 2.19523   
     axis 0 0 0   XYZ
    dof rx ry rz
    limits (-20.0 45.0)
           (-30.0 30.0)
           (-30.0 30.0)
  end
  begin
     id 13 
     name thorax
     direction 0.00704869 0.997783 0.0661741   
     length 2.21977   
     axis 0 0 0   XYZ
    dof rx ry rz
    limits (-20.0 45.0)
           (-30.0 30.0)
           (-30.0 30.0)
  end
  begin
     id 14 
     name lowerneck
     direction -0.00407501 0.995527 0.0943846   
     length 1.83142   
     axis 0 0 0   XYZ
    dof rx ry rz
    limits (-20.0 45.0)
           (-30.0 30.0)
           (-30.0 30.0)
  end
  begin
     id 15 
     name upperneck
     direction 0.0640586 0.986486 -0.150807   
     length 1.84616   
     axis 0 0 0   XYZ
    dof rx ry rz
    limits (-20.0 45.0)
           (-30.0 30.0)
           (-30.0 30.0)
  end
  begin
     id 16
     name head
     direction 0.0188017 0.99791 -0.0618239  
     length 1.85932  
     axis 0 0 0   XYZ
    dof rx ry rz
    limits (-20.0 45.0)
           (-30.0 30.0)
           (-30.0 30.0)
  end
  begin
     id 17 
     name lclavicle
     direction 0.976074 0.206905 0.066852  
     length 3.81043  
     axis 0 0 0   XYZ
    dof ry rz
    limits (-20.0 10.0)
           (0.0 20.0)
  end
  begin
     id 18 
     name lhumerus
     direction 1 -4.48971e-011 1.86916e-027   
     length 5.37587   
     axis 180 -30 -90   XYZ
    dof rx ry rz
    limits (-60.0 90.0)
           (-90.0 90.0)
           (-90.0 90.0)
  end
  begin
     id 19
     name lradius
     direction 1 -4.48968e-011 1.69187e-027   
     length 3.35977   
     axis 180 -30 -90   XYZ
    dof rx
    limits (-10.0 170.0)
  end
  begin
     id 20
     name lwrist
     direction 1 -4.48968e-011 5.8978e-027   
     length 1.67988   
     axis -3.27506e-015 90 90   XYZ
    dof ry
    limits (-180.0 0.0)
 end
  begin
     id 21 
     name lhand
     direction 1 -4.49028e-011 1.18071e-026   
     length 0.561859   
     axis -7.52654e-015 90 90   XYZ
    dof rx rz
    limits (-90.0 90.0)
           (-45.0 45.0)
  end
  begin
     id 22 
     name lfingers
     direction 1 -4.48927e-011 2.35758e-026   
     length 0.452985   
     axis -1.50534e-014 90 90   XYZ
    dof rx
    limits (0.0 90.0)
  end
  begin
     id 23
     name lthumb
     direction 0.707107 -6.34898e-011 0.707107   
     length 0.650399   
     axis -90 45 5.69224e-014   XYZ
    dof rx rz
    limits (-45.0 45.0)
           (-45.0 45.0)
  end
  begin
     id 24 
     name rclavicle
     direction -0.988403 0.151789 0.00439714   
     length 3.6942  
     axis 0 0 0   XYZ 
    dof ry rz
    limits (-10.0 20.0)
           (-20.0 0.0)
  end
  begin
     id 25 
     name rhumerus
     direction -1 -4.48978e-011 1.62495e-027  
     length 5.22819   
     axis 180 30 90   XYZ
    dof rx ry rz
    limits (-90.0 60.0)
           (-90.0 90.0)
           (-90.0 90.0)
  end
  begin
     id 26 
     name rradius
     direction -1 -4.48961e-011 3.47796e-027   
     length 3.40764   
     axis 180 30 90   XYZ
    dof rx
    limits (-10.0 170.0)
  end
  begin
     id 27 
     name rwrist
     direction -1 -4.48949e-011 5.89602e-027   
     length 1.70382   
     axis -3.27506e-015 -90 -90   XYZ
    dof ry
    limits (-180.0 0.0)
  end
  begin
     id 28
     name rhand
     direction -1 -4.48977e-011 1.17973e-026   
     length 0.583255   
     axis -7.52654e-015 -90 -90   XYZ
    dof rx rz
    limits (-90.0 90.0)
           (-45.0 45.0)
  end
  begin
     id 29
     name rfingers
     direction -1 -4.49099e-011 2.36408e-026   
     length 0.470235   
     axis -1.50534e-014 -90 -90   XYZ
    dof rx
    limits (0.0 90.0)
  end
  begin
     id 30
     name rthumb
     direction -0.707107 -6.35011e-011 0.707107   
     length 0.675167   
     axis -90 -45 -5.69224e-014   XYZ
    dof rx rz
    limits (-45.0 45.0)
           (-45.0 45.0)
  end
:hierarchy
  begin
    root lhipjoint rhipjoint lowerback
    lhipjoint lfemur
    lfemur ltibia
    ltibia lfoot
    lfoot ltoes
    rhipjoint rfemur
    rfemur rtibia
    rtibia rfoot
    rfoot rtoes
    lowerback upperback
    upperback thorax
    thorax lowerneck lclavicle rclavicle
    lowerneck upperneck
    upperneck head
    lclavicle lhumerus
    lhumerus lradius
    lradius lwrist
    lwrist lhand lthumb
    lhand lfingers
    rclavicle rhumerus
    rhumerus rradius
    rradius rwrist
    rwrist rhand rthumb
    rhand rfingers
  end

#!OML:ASF G:\JayActor3\Patient Classification 1\Patient 1\Session 2\male.ASF
:FULLY-SPECIFIED
:DEGREES
1332
root -11.849 16.5344 -4.60581 230.974 80.3318 -122.354
lowerback 2.83874 0.234266 7.91361
upperback -1.96863 0.755834 1.423
thorax -3.56664 0.217718 -3.00292
lowerneck -4.28302 -4.17645 -4.57247
upperneck 1.74384 -5.55761 9.51276
head 1.77099 -2.60326 3.76534
rclavicle 4.52235e-015 -4.37326e-015
rhumerus -55.3571 21.7485 -96.2137
rradius 67.2782
rwrist 1.59905
rhand -28.0891 16.7479
rfingers 7.12502
rthumb -1.47201 -13.2267
lclavicle 4.52235e-015 -4.37326e-015
lhumerus -33.0556 -4.81977 85.8156
lradius 118.261
lwrist 82.413
lhand -22.8211 10.1876
lfingers 7.12502
lthumb 3.61585 40.1366
rfemur 14.3408 -0.501983 34.7892
rtibia 31.1415
rfoot -13.6934 -2.28788
rtoes 7.73722
lfemur -20.6575 0.893904 -15.1224
ltibia 34.5164
lfoot -16.1354 -5.64643
ltoes -20.6877
1333
root -11.6772 16.5477 -4.61866 228.906 80.6879 -124.395
lowerback 2.85942 0.155247 7.23744
upperback -2.01404 0.615452 1.30648
thorax -3.64164 0.157251 -2.73927
lowerneck -4.16143 -4.13762 -4.5564
upperneck 1.68028 -5.50565 9.58494
head 1.72628 -2.5795 3.79171
rclavicle 1.44119e-014 -1.35174e-014
rhumerus -55.2929 21.576 -96.1024
rradius 67.1294
rwrist 1.63805
rhand -28.1856 16.7415
rfingers 7.12502
rthumb -1.56519 -13.2325
lclavicle 1.44119e-014 -1.35174e-014
lhumerus -33.1094 -4.74079 85.7991
lradius 118.246
lwrist 82.4164
lhand -22.8448 10.2097
lfingers 7.12502
lthumb 3.59294 40.1591
rfemur 12.3505 -1.14592 33.9558
rtibia 35.4817
rfoot -12.0773 -2.40951
rtoes 9.38161
lfemur -19.0318 0.394002 -15.6991
ltibia 32.9831
lfoot -15.5527 -5.76263
ltoes -18.6961
1334
root -11.5143 16.5686 -4.62951 225.478 81.1186 -127.677
lowerback 3.11643 0.0448237 6.38582
upperback -2.01792 0.437547 1.13696
thorax -3.80801 0.0798241 -2.4307
lowerneck -4.095 -4.1015 -4.5487
upperneck 1.62235 -5.45575 9.64519
head 1.69343 -2.55574 3.81452
rclavicle 9.44227e-016 2.5842e-014
rhumerus -55.1385 21.3631 -95.985
rradius 66.9151
rwrist 1.67347
rhand -28.2853 16.7152
rfingers 7.12502
rthumb -1.66143 -13.2581
lclavicle 9.44227e-016 2.5842e-014
lhumerus -33.0947 -4.65383 85.7817
lradius 118.173
lwrist 82.3857
lhand -22.9257 10.2535
lfingers 7.12502
lthumb 3.5149 40.2043
rfemur 10.1156 -1.88527 32.881
rtibia 40.2298
rfoot -9.88733 -3.05377
rtoes 11.7814
lfemur -17.5863 -0.0812971 -16.4186
ltibia 31.7713
lfoot -14.8027 -5.74577
ltoes -17.0588
1335
root -11.3607 16.593 -4.63893 220.647 81.6119 -132.243
lowerback 3.57908 -0.0717208 5.3892
upperback -1.96133 0.246456 0.911879
thorax -4.0251 -0.000537997 -2.09597
lowerneck -4.13726 -4.07627 -4.5418
upperneck 1.60188 -5.42013 9.67235
head 1.69245 -2.53654 3.82353
rclavicle -7.15625e-015 1.98785e-015
rhumerus -54.9108 21.1274 -95.8674
rradius 66.6852
rwrist 1.69507
rhand -28.3537 16.6791
rfingers 7.12502
rthumb -1.72752 -13.2936
lclavicle -7.15625e-015 1.98785e-015
lhumerus -32.9964 -4.57688 85.7606
lradius 118.046
lwrist 82.3381
lhand -23.0978 10.3239
lfingers 7.12502
lthumb 3.34865 40.2773
rfemur 7.63456 -2.66297 31.5827
rtibia 45.3779
rfoot -7.11328 -4.36315
rtoes 14.5052
lfemur -16.2182 -0.407589 -17.2887
ltibia 30.7195
lfoot -13.93 -5.67636
ltoes -15.8953
1336
root -11.2158 16.6157 -4.64714 214.431 82.1391 -138.099
lowerback 4.19097 -0.172395 4.28368
upperback -1.84227 0.0633236 0.639832
thorax -4.25709 -0.0723604 -1.7462
lowerneck -4.3027 -4.06201 -4.5343
upperneck 1.63312 -5.39953 9.65433
head 1.73019 -2.52191 3.81402
rclavicle 1.94809e-014 -7.95139e-016
rhumerus -54.6557 20.912 -95.7623
rradius 66.5169
rwrist 1.68601
rhand -28.3598 16.6511
rfingers 7.12502
rthumb -1.73339 -13.3216
lclavicle 1.94809e-014 -7.95139e-016
lhumerus -32.8247 -4.52024 85.7272
lradius 117.889
lwrist 82.3303
lhand -23.3624 10.4255
lfingers 7.12502
lthumb 3.09312 40.3828
rfemur 4.9182 -3.42258 30.1032
rtibia 50.865
rfoot -3.78724 -6.3343
rtoes 17.2286
lfemur -14.8221 -0.473242 -18.2991
ltibia 29.6717
lfoot -13.0144 -5.67551
ltoes -15.1255
1337
root -11.0776 16.6342 -4.65439 207.064 82.6604 -145.062
lowerback 4.87527 -0.234874 3.13022
upperback -1.68212 -0.0852497 0.33662
thorax -4.48193 -0.12328 -1.40105
lowerneck -4.55124 -4.05818 -4.51674
upperneck 1.70559 -5.39368 9.5889
head 1.79552 -2.51293 3.78408
rclavicle 4.67144e-015 1.11319e-014
rhumerus -54.4407 20.7536 -95.6902
rradius 66.4899
rwrist 1.63178
rhand -28.3247 16.6573
rfingers 7.12502
rthumb -1.69956 -13.3157
lclavicle 4.67144e-015 1.11319e-014
lhumerus -32.6133 -4.51622 85.6773
lradius 117.738
lwrist 82.4123
lhand -23.691 10.5086
lfingers 7.12502
lthumb 2.77574 40.4703
rfemur 1.98235 -4.12241 28.52
rtibia 56.5886
rfoot -0.13248 -8.63739
rtoes 19.6803
lfemur -13.3329 -0.227089 -19.3948
ltibia 28.5165
lfoot -12.088 -5.86975
ltoes -14.3457
1338
root -10.9433 16.6495 -4.66118 198.968 83.1453 -152.766
lowerback 5.54941 -0.250327 1.9923
upperback -1.51095 -0.185271 0.0294178
thorax -4.68523 -0.147844 -1.07047
lowerneck -4.79196 -4.0533 -4.49218
upperneck 1.76002 -5.38489 9.48976
head 1.85165 -2.50395 3.74122
rclavicle -1.10325e-014 -1.90833e-014
rhumerus -54.3154 20.7034 -95.6655
rradius 66.6541
rwrist 1.52549
rhand -28.2587 16.6982
rfingers 7.12502
rthumb -1.63581 -13.2752
lclavicle -1.10325e-014 -1.90833e-014
lhumerus -32.4021 -4.57199 85.6107
lradius 117.634
lwrist 82.6092
lhand -24.0087 10.5442
lfingers 7.12502
lthumb 2.46896 40.5097
rfemur -1.14102 -4.73021 26.937
rtibia 62.4264
rfoot 3.29644 -10.6534
rtoes 21.7315
lfemur -11.7341 0.303924 -20.4959
ltibia 27.1939
lfoot -11.1634 -6.28375
ltoes -13.1549
1339
root -10.8106 16.6647 -4.66886 190.692 83.5867 -160.72
lowerback 6.1482 -0.220439 0.939763
upperback -1.36867 -0.231595 -0.257716
thorax -4.87364 -0.145836 -0.771102
lowerneck -4.92868 -4.03448 -4.45907
upperneck 1.75098 -5.35531 9.37817
head 1.86539 -2.4887 3.6947
rclavicle 7.00716e-015 -3.18055e-015
rhumerus -54.296 20.7678 -95.6884
rradius 67.0042
rwrist 1.37796
rhand -28.1918 16.7922
rfingers 7.12502
rthumb -1.57116 -13.1818
lclavicle 7.00716e-015 -3.18055e-015
lhumerus -32.2367 -4.6821 85.5328
lradius 117.607
lwrist 82.8862
lhand -24.2184 10.5058
lfingers 7.12502
lthumb 2.26639 40.4735
rfemur -4.43038 -5.2373 25.4543
rtibia 68.2629
rfoot 6.05224 -12.0877
rtoes 23.4122
lfemur -10.0705 1.02642 -21.5286
ltibia 25.6908
lfoot -10.293 -6.73952
ltoes -11.7717
1340
root -10.6775 16.6834 -4.67912 182.542 84.0064 -168.66
lowerback 6.62344 -0.155172 0.00891457
upperback -1.27928 -0.230438 -0.51011
thorax -5.04687 -0.121679 -0.509137
lowerneck -4.9104 -3.99216 -4.40983
upperneck 1.65382 -5.29231 9.2638
head 1.81855 -2.46209 3.6476
rclavicle -3.67752e-015 8.74653e-015
rhumerus -54.3455 20.9288 -95.7417
rradius 67.4703
rwrist 1.22051
rhand -28.16 16.9066
rfingers 7.12502
rthumb -1.54041 -13.0676
lclavicle -3.67752e-015 8.74653e-015
lhumerus -32.1318 -4.8221 85.4533
lradius 117.667
lwrist 83.1501
lhand -24.2495 10.4076
lfingers 7.12502
lthumb 2.2364 40.3756
rfemur -7.87151 -5.64821 24.1268
rtibia 74.0154
rfoot 7.7989 -12.8525
rtoes 24.5128
lfemur -8.38946 1.74662 -22.4679
ltibia 24.0175
lfoot -9.46495 -7.01519
ltoes -10.3308
